<svg width="227" height="35" viewBox="0 0 227 35" fill="none" xmlns="http://www.w3.org/2000/svg">
<mask id="path-1-inside-1_102_264" fill="white">
<path fill-rule="evenodd" clip-rule="evenodd" d="M16 0C7.16344 0 0 7.16344 0 16C0 24.8366 7.16345 32 16 32H201C204.537 32 207.806 30.8522 210.455 28.9086C213.924 32.4486 218.759 34.645 224.106 34.645L226.6 34.645C221.299 34.645 217 30.347 217 25.045V16L217 16C217 7.16344 209.837 0 201 0H16Z"/>
</mask>
<path d="M210.455 28.9086L211.527 27.8588L210.616 26.9299L209.568 27.6992L210.455 28.9086ZM224.106 34.645V36.145V34.645ZM217 16H218.5V14.4704L216.971 14.5003L217 16ZM217 16H215.5V17.5296L217.029 17.4997L217 16ZM1.5 16C1.5 7.99187 7.99187 1.5 16 1.5V-1.5C6.33502 -1.5 -1.5 6.33502 -1.5 16H1.5ZM16 30.5C7.99187 30.5 1.5 24.0081 1.5 16H-1.5C-1.5 25.665 6.33502 33.5 16 33.5V30.5ZM201 30.5H16V33.5H201V30.5ZM209.568 27.6992C207.168 29.4604 204.207 30.5 201 30.5V33.5C204.867 33.5 208.445 32.244 211.343 30.118L209.568 27.6992ZM209.384 29.9585C213.123 33.7745 218.339 36.145 224.106 36.145V33.145C219.178 33.145 214.725 31.1227 211.527 27.8588L209.384 29.9585ZM224.106 36.145L226.6 36.145V33.145L224.106 33.145V36.145ZM226.6 33.145C222.127 33.145 218.5 29.5185 218.5 25.045H215.5C215.5 31.1754 220.47 36.145 226.6 36.145V33.145ZM218.5 25.045V16H215.5V25.045H218.5ZM216.971 14.5003L216.971 14.5003L217.029 17.4997L217.03 17.4997L216.971 14.5003ZM201 1.5C209.008 1.5 215.5 7.99187 215.5 16H218.5C218.5 6.33502 210.665 -1.5 201 -1.5V1.5ZM16 1.5H201V-1.5H16V1.5Z" fill="#218AFF" mask="url(#path-1-inside-1_102_264)"/>
<path d="M18.617 20.144C16.865 20.144 15.713 18.752 15.713 16.88C15.713 15.008 16.865 13.616 18.617 13.616C20.153 13.616 21.101 14.528 21.293 15.872H20.249C20.081 15.044 19.493 14.528 18.617 14.528C17.417 14.528 16.769 15.512 16.769 16.88C16.769 18.248 17.417 19.232 18.617 19.232C19.493 19.232 20.093 18.704 20.249 17.864H21.293C21.113 19.22 20.045 20.144 18.617 20.144ZM26.3097 20V19.22C25.7697 19.916 25.0497 20.144 24.3177 20.144C22.9137 20.144 22.0617 19.484 22.0617 18.308C22.0617 17.204 22.9137 16.628 24.3057 16.364L26.2617 15.992V15.512C26.2617 14.768 25.7577 14.504 24.8937 14.504C24.1497 14.504 23.3337 14.732 23.2857 15.68H22.2777C22.3257 14.168 23.5737 13.616 24.8937 13.616C26.5017 13.616 27.2457 14.312 27.2457 15.416V20H26.3097ZM23.1057 18.284C23.1057 18.86 23.4777 19.256 24.3657 19.256C25.2777 19.256 26.2617 18.74 26.2617 17.528V16.844L24.4497 17.216C23.6457 17.384 23.1057 17.576 23.1057 18.284ZM32.7504 15.992C32.7504 15.128 32.2944 14.528 31.3344 14.528C30.9024 14.528 29.5704 14.732 29.5704 16.508V20H28.5624V13.76H29.5224V14.66C29.9424 14.072 30.6024 13.616 31.5264 13.616C33.1104 13.616 33.7464 14.792 33.7464 15.896V20H32.7504V15.992ZM40.1904 20.144C38.4264 20.144 37.2744 18.752 37.2744 16.88C37.2744 15.008 38.4264 13.616 40.1904 13.616C41.9544 13.616 43.1064 15.008 43.1064 16.88V17.24H38.3424C38.4504 18.416 39.0864 19.232 40.1904 19.232C41.0064 19.232 41.6424 18.812 41.9304 18.104H42.9744C42.5784 19.34 41.5464 20.144 40.1904 20.144ZM38.3664 16.328H42.0144C41.8584 15.26 41.2344 14.528 40.1904 14.528C39.1464 14.528 38.5224 15.26 38.3664 16.328ZM46.1486 20L43.6526 13.76H44.7446L46.6646 18.836L48.5846 13.76H49.6766L47.1806 20H46.1486ZM53.1396 20.144C51.3756 20.144 50.2236 18.752 50.2236 16.88C50.2236 15.008 51.3756 13.616 53.1396 13.616C54.9036 13.616 56.0556 15.008 56.0556 16.88V17.24H51.2916C51.3996 18.416 52.0356 19.232 53.1396 19.232C53.9556 19.232 54.5916 18.812 54.8796 18.104H55.9236C55.5276 19.34 54.4956 20.144 53.1396 20.144ZM51.3156 16.328H54.9636C54.8076 15.26 54.1836 14.528 53.1396 14.528C52.0956 14.528 51.4716 15.26 51.3156 16.328ZM57.2499 20V13.76H58.2099V14.804C58.7139 13.916 59.4459 13.688 60.2019 13.688H60.6699V14.66H60.1779C59.1219 14.66 58.2579 15.104 58.2579 16.664V20H57.2499ZM61.3419 22.4V21.512H62.2779C62.8419 21.512 62.9859 21.308 63.1779 20.78L63.4779 19.988L61.1019 13.76H62.1939L63.9939 18.752L65.7939 13.76H66.8859L64.1259 21.032C63.8379 21.8 63.5619 22.4 62.6499 22.4H61.3419ZM70.4624 20.144C68.5904 20.144 67.4384 18.752 67.4384 16.88C67.4384 15.008 68.5904 13.616 70.4624 13.616C72.3344 13.616 73.4864 15.008 73.4864 16.88C73.4864 18.752 72.3344 20.144 70.4624 20.144ZM68.4944 16.88C68.4944 18.248 69.1424 19.232 70.4624 19.232C71.7824 19.232 72.4304 18.248 72.4304 16.88C72.4304 15.512 71.7824 14.528 70.4624 14.528C69.1424 14.528 68.4944 15.512 68.4944 16.88ZM78.8754 15.992C78.8754 15.128 78.4194 14.528 77.4594 14.528C77.0274 14.528 75.6954 14.732 75.6954 16.508V20H74.6874V13.76H75.6474V14.66C76.0674 14.072 76.7274 13.616 77.6514 13.616C79.2354 13.616 79.8714 14.792 79.8714 15.896V20H78.8754V15.992ZM83.9833 20.144C82.2193 20.144 81.0673 18.752 81.0673 16.88C81.0673 15.008 82.2193 13.616 83.9833 13.616C85.7473 13.616 86.8993 15.008 86.8993 16.88V17.24H82.1353C82.2433 18.416 82.8793 19.232 83.9833 19.232C84.7993 19.232 85.4353 18.812 85.7233 18.104H86.7673C86.3713 19.34 85.3393 20.144 83.9833 20.144ZM82.1593 16.328H85.8073C85.6513 15.26 85.0273 14.528 83.9833 14.528C82.9393 14.528 82.3153 15.26 82.1593 16.328ZM92.6336 20.144C91.1336 20.144 90.0536 19.472 89.9696 17.96H90.9896C91.0856 18.92 91.6376 19.268 92.6336 19.268C93.5576 19.268 94.1096 18.932 94.1096 18.332C94.1096 17.78 93.9176 17.54 92.5376 17.312C90.6296 17 90.1616 16.376 90.1616 15.392C90.1616 14.312 91.1216 13.616 92.4536 13.616C94.0256 13.616 94.9976 14.36 95.0096 15.68H94.0016C93.9656 14.744 93.3056 14.492 92.4536 14.492C91.7456 14.492 91.1696 14.804 91.1696 15.38C91.1696 15.956 91.4816 16.16 92.7896 16.388C94.6256 16.712 95.1296 17.24 95.1296 18.272C95.1296 19.472 94.0616 20.144 92.6336 20.144ZM98.7841 20.144C97.0201 20.144 95.8681 18.752 95.8681 16.88C95.8681 15.008 97.0201 13.616 98.7841 13.616C100.548 13.616 101.7 15.008 101.7 16.88V17.24H96.9361C97.0441 18.416 97.6801 19.232 98.7841 19.232C99.6001 19.232 100.236 18.812 100.524 18.104H101.568C101.172 19.34 100.14 20.144 98.7841 20.144ZM96.9601 16.328H100.608C100.452 15.26 99.8281 14.528 98.7841 14.528C97.7401 14.528 97.1161 15.26 96.9601 16.328ZM107.082 15.992C107.082 15.128 106.626 14.528 105.666 14.528C105.234 14.528 103.902 14.732 103.902 16.508V20H102.894V13.76H103.854V14.66C104.274 14.072 104.934 13.616 105.858 13.616C107.442 13.616 108.078 14.792 108.078 15.896V20H107.082V15.992ZM115.25 20H114.29V19.04C113.846 19.724 113.138 20.144 112.178 20.144C110.306 20.144 109.274 18.752 109.274 16.88C109.274 15.008 110.306 13.616 112.178 13.616C113.102 13.616 113.798 14 114.242 14.648V11.36H115.25V20ZM110.33 16.88C110.33 18.248 110.978 19.232 112.298 19.232C113.618 19.232 114.266 18.248 114.266 16.88C114.266 15.512 113.618 14.528 112.298 14.528C110.978 14.528 110.33 15.512 110.33 16.88ZM119.69 11.84H120.698V13.76H122.378V14.648H120.698V18.464C120.698 18.92 120.89 19.112 121.346 19.112H122.378V20H121.154C120.074 20 119.69 19.544 119.69 18.584V14.648H118.538V13.76H119.69V11.84ZM123.461 20V11.36H124.469V14.6C124.889 14.036 125.525 13.616 126.425 13.616C128.009 13.616 128.645 14.792 128.645 15.896V20H127.649V15.992C127.649 15.128 127.193 14.528 126.233 14.528C125.801 14.528 124.469 14.732 124.469 16.508V20H123.461ZM132.757 20.144C130.993 20.144 129.841 18.752 129.841 16.88C129.841 15.008 130.993 13.616 132.757 13.616C134.521 13.616 135.673 15.008 135.673 16.88V17.24H130.909C131.017 18.416 131.653 19.232 132.757 19.232C133.573 19.232 134.209 18.812 134.497 18.104H135.541C135.145 19.34 134.113 20.144 132.757 20.144ZM130.933 16.328H134.581C134.425 15.26 133.801 14.528 132.757 14.528C131.713 14.528 131.089 15.26 130.933 16.328ZM136.843 20V13.76H137.851V20H136.843ZM136.843 12.584V11.36H137.851V12.584H136.843ZM139.316 20V13.76H140.276V14.804C140.78 13.916 141.512 13.688 142.268 13.688H142.736V14.66H142.244C141.188 14.66 140.324 15.104 140.324 16.664V20H139.316ZM150.336 15.992C150.336 15.128 149.88 14.528 148.92 14.528C148.488 14.528 147.156 14.732 147.156 16.508V20H146.148V13.76H147.108V14.66C147.528 14.072 148.188 13.616 149.112 13.616C150.696 13.616 151.332 14.792 151.332 15.896V20H150.336V15.992ZM156.704 20V19.22C156.164 19.916 155.444 20.144 154.712 20.144C153.308 20.144 152.456 19.484 152.456 18.308C152.456 17.204 153.308 16.628 154.7 16.364L156.656 15.992V15.512C156.656 14.768 156.152 14.504 155.288 14.504C154.544 14.504 153.728 14.732 153.68 15.68H152.672C152.72 14.168 153.968 13.616 155.288 13.616C156.896 13.616 157.64 14.312 157.64 15.416V20H156.704ZM153.5 18.284C153.5 18.86 153.872 19.256 154.76 19.256C155.672 19.256 156.656 18.74 156.656 17.528V16.844L154.844 17.216C154.04 17.384 153.5 17.576 153.5 18.284ZM166.757 15.992C166.757 15.128 166.301 14.528 165.485 14.528C165.053 14.528 163.865 14.732 163.865 16.508V20H162.857V15.992C162.857 15.128 162.401 14.528 161.585 14.528C161.153 14.528 159.965 14.732 159.965 16.508V20H158.957V13.76H159.917V14.648C160.265 14.06 160.853 13.616 161.777 13.616C162.749 13.616 163.349 14.144 163.649 14.828C164.021 14.156 164.669 13.616 165.677 13.616C167.117 13.616 167.765 14.792 167.765 15.896V20H166.757V15.992ZM171.886 20.144C170.122 20.144 168.97 18.752 168.97 16.88C168.97 15.008 170.122 13.616 171.886 13.616C173.65 13.616 174.802 15.008 174.802 16.88V17.24H170.038C170.146 18.416 170.782 19.232 171.886 19.232C172.702 19.232 173.338 18.812 173.626 18.104H174.67C174.274 19.34 173.242 20.144 171.886 20.144ZM170.062 16.328H173.71C173.554 15.26 172.93 14.528 171.886 14.528C170.842 14.528 170.218 15.26 170.062 16.328ZM178.204 20.144C176.704 20.144 175.624 19.472 175.54 17.96H176.56C176.656 18.92 177.208 19.268 178.204 19.268C179.128 19.268 179.68 18.932 179.68 18.332C179.68 17.78 179.488 17.54 178.108 17.312C176.2 17 175.732 16.376 175.732 15.392C175.732 14.312 176.692 13.616 178.024 13.616C179.596 13.616 180.568 14.36 180.58 15.68H179.572C179.536 14.744 178.876 14.492 178.024 14.492C177.316 14.492 176.74 14.804 176.74 15.38C176.74 15.956 177.052 16.16 178.36 16.388C180.196 16.712 180.7 17.24 180.7 18.272C180.7 19.472 179.632 20.144 178.204 20.144ZM184.058 13.76H185.018V14.72C185.462 14.036 186.17 13.616 187.13 13.616C189.002 13.616 190.034 15.008 190.034 16.88C190.034 18.752 189.002 20.144 187.13 20.144C186.206 20.144 185.51 19.76 185.066 19.112V22.4H184.058V13.76ZM185.042 16.88C185.042 18.248 185.69 19.232 187.01 19.232C188.33 19.232 188.978 18.248 188.978 16.88C188.978 15.512 188.33 14.528 187.01 14.528C185.69 14.528 185.042 15.512 185.042 16.88ZM191.23 11.36H192.238V18.464C192.238 18.92 192.43 19.112 192.886 19.112H193.726V20H192.694C191.614 20 191.23 19.544 191.23 18.584V11.36ZM197.013 20.144C195.513 20.144 194.433 19.472 194.349 17.96H195.369C195.465 18.92 196.017 19.268 197.013 19.268C197.937 19.268 198.489 18.932 198.489 18.332C198.489 17.78 198.297 17.54 196.917 17.312C195.009 17 194.541 16.376 194.541 15.392C194.541 14.312 195.501 13.616 196.833 13.616C198.405 13.616 199.377 14.36 199.389 15.68H198.381C198.345 14.744 197.685 14.492 196.833 14.492C196.125 14.492 195.549 14.804 195.549 15.38C195.549 15.956 195.861 16.16 197.169 16.388C199.005 16.712 199.509 17.24 199.509 18.272C199.509 19.472 198.441 20.144 197.013 20.144Z" fill="#218AFF"/>
</svg>
